<svg xmlns="http://www.w3.org/2000/svg" width="1592" height="1592" fill="none"><rect width="1592" height="1592" fill="#1E1E1E" rx="796"/><path fill="#FFB015" d="M237.63 1032.91v9.29h14.742v4.78H237.63v11.67H232v-30.51h22.249v4.77H237.63Zm42.244 26.17c-3.131 0-5.947-.64-8.44-1.96a15.822 15.822 0 0 1-5.881-5.63 15.66 15.66 0 0 1-2.128-8.09c0-2.95.698-5.63 2.128-8.02a15.81 15.81 0 0 1 5.881-5.62 17.364 17.364 0 0 1 8.44-2.05c3.11 0 5.925.68 8.44 2.05 2.494 1.36 4.452 3.23 5.882 5.62 1.407 2.39 2.127 5.07 2.127 8.02 0 3.02-.72 5.71-2.127 8.09a15.233 15.233 0 0 1-5.882 5.63c-2.509 1.32-5.33 1.96-8.44 1.96Zm0-4.95c1.908.04 3.791-.43 5.456-1.36 1.637-.89 2.919-2.17 3.835-3.83.961-1.64 1.452-3.5 1.452-5.54 0-2.05-.491-3.86-1.452-5.46a9.775 9.775 0 0 0-3.835-3.83 10.362 10.362 0 0 0-5.456-1.45c-2.046 0-3.901.49-5.543 1.45-1.596.91-2.92 2.24-3.835 3.83a10.763 10.763 0 0 0-1.364 5.46c0 2.04.447 3.9 1.364 5.54.96 1.66 2.237 2.94 3.835 3.83 1.642.92 3.497 1.36 5.543 1.36Zm48.267 4.53-6.219-8.96c-.393.07-.791.1-1.19.09h-6.907v8.87h-5.624v-30.52h12.531c2.663 0 4.965.47 6.902 1.36 1.98.85 3.492 2.11 4.517 3.75 1.026 1.6 1.539 3.54 1.539 5.8 0 2.28-.578 4.24-1.708 5.88-1.091 1.66-2.684 2.88-4.774 3.67l7.077 10.06h-6.144Zm-.082-19.61c0-1.98-.654-3.49-1.964-4.52-1.254-1.02-3.126-1.54-5.619-1.54h-6.656v12.12h6.656c2.493 0 4.365-.52 5.619-1.54 1.31-1.07 1.964-2.58 1.964-4.52Zm24.088-6.06H342.01v-4.85h25.915v4.85h-10.148v25.67h-5.625l-.005-25.67Zm45.675 18.59h-15.26l-2.984 7.08h-5.881l13.727-30.52h5.624l13.727 30.52h-5.887l-3.066-7.08Zm-1.877-4.43-5.712-13.3-5.712 13.3h11.424Zm20.612-19.01h5.625v25.74h15.942v4.78h-21.567v-30.52Zm54.831 25.74v4.78H448.55v-30.52h22.248v4.77h-16.629v7.93h14.747v4.69h-14.747v8.35h17.219Zm26.384 5.2c-3.137 0-5.947-.64-8.44-1.96a15.166 15.166 0 0 1-5.8-5.63 15.415 15.415 0 0 1-2.128-8.09c0-2.95.704-5.63 2.128-8.02a15.848 15.848 0 0 1 5.881-5.62c2.494-1.37 5.293-2.05 8.359-2.05 2.493 0 4.773.47 6.819 1.37 2.09.85 3.858 2.1 5.282 3.74l-3.661 3.41a10.751 10.751 0 0 0-3.702-2.68 10.783 10.783 0 0 0-4.482-.89c-2.111 0-3.983.49-5.63 1.45a10.11 10.11 0 0 0-3.917 3.83 10.763 10.763 0 0 0-1.364 5.46c0 2.04.447 3.9 1.364 5.54.954 1.66 2.258 2.94 3.917 3.83 1.642.92 3.519 1.36 5.63 1.36 3.235 0 5.963-1.21 8.184-3.66l3.661 3.5c-1.424 1.66-3.192 2.94-5.282 3.83a17.506 17.506 0 0 1-6.819 1.28Zm46.254-5.2v4.78h-22.849v-30.52h22.248v4.77h-16.623v7.93h14.747v4.69h-14.747v8.35h17.224Zm32.172 4.78-6.219-8.96c-.397.07-.799.1-1.201.09h-6.901v8.87h-5.631v-30.52h12.532c2.663 0 4.965.47 6.902 1.36 1.98.85 3.492 2.11 4.517 3.75 1.026 1.6 1.539 3.54 1.539 5.8 0 2.28-.579 4.24-1.708 5.88-1.091 1.66-2.684 2.88-4.774 3.67l7.076 10.06h-6.132Zm-.087-19.61c0-1.98-.655-3.49-1.964-4.52-1.255-1.02-3.126-1.54-5.62-1.54h-6.656v12.12h6.656c2.494 0 4.365-.52 5.62-1.54 1.309-1.07 1.964-2.58 1.964-4.52Zm58.644 14.83v4.78h-22.844v-30.52h22.249v4.77h-16.624v7.93h14.747v4.69h-14.747v8.35h17.219Zm44.311 5.2c-3.131 0-5.946-.64-8.44-1.96a15.164 15.164 0 0 1-5.794-5.63 15.404 15.404 0 0 1-2.127-8.09c0-2.95.698-5.63 2.127-8.02a15.806 15.806 0 0 1 5.882-5.62c2.493-1.37 5.286-2.05 8.352-2.05 2.494 0 4.774.47 6.82 1.37 2.09.85 3.857 2.1 5.287 3.74l-3.667 3.41a10.747 10.747 0 0 0-3.701-2.68 10.783 10.783 0 0 0-4.482-.89c-2.112 0-3.983.49-5.625 1.45a10.125 10.125 0 0 0-3.923 3.83 10.773 10.773 0 0 0-1.364 5.46c0 2.04.448 3.9 1.364 5.54.96 1.66 2.259 2.94 3.923 3.83 1.637.92 3.513 1.36 5.625 1.36 3.241 0 5.968-1.21 8.183-3.66l3.667 3.5c-1.43 1.66-3.197 2.94-5.287 3.83a17.508 17.508 0 0 1-6.82 1.28Zm43.352-.42-6.22-8.96c-.394.07-.794.1-1.195.09h-6.907v8.87h-5.619v-30.52h12.526c2.663 0 4.965.47 6.907 1.36 1.981.85 3.492 2.11 4.518 3.75 1.02 1.6 1.533 3.54 1.533 5.8 0 2.28-.578 4.24-1.708 5.88-1.085 1.66-2.684 2.88-4.774 3.67l7.077 10.06h-6.138Zm-.082-19.61c0-1.98-.66-3.49-1.964-4.52-1.255-1.02-3.132-1.54-5.619-1.54h-6.657v12.12h6.657c2.487 0 4.364-.52 5.619-1.54 1.304-1.07 1.964-2.58 1.964-4.52Zm40.711 14.83v4.78h-22.843v-30.52h22.248v4.77h-16.624v7.93h14.747v4.69h-14.747v8.35h17.219Zm21.692 5.2c-2.306 0-4.6-.31-6.82-.94-2.215-.68-3.961-1.58-5.199-2.72l1.964-4.35c1.233.98 2.766 1.77 4.599 2.38 1.811.65 3.623.94 5.456.94 2.259 0 3.944-.36 5.03-1.11 1.129-.72 1.702-1.7 1.702-2.89a2.79 2.79 0 0 0-.933-2.13 6.445 6.445 0 0 0-2.389-1.28c-1.291-.43-2.6-.8-3.923-1.11a52.168 52.168 0 0 1-5.619-1.62 9.192 9.192 0 0 1-3.672-2.64c-1.02-1.2-1.533-2.77-1.533-4.78 0-1.7.447-3.24 1.364-4.6.895-1.36 2.258-2.43 4.092-3.24 1.876-.85 4.135-1.28 6.819-1.28 1.845.01 3.681.26 5.456.77 1.811.47 3.366 1.1 4.692 1.96l-1.795 4.35a20.497 20.497 0 0 0-4.261-1.71c-1.35-.44-2.759-.67-4.179-.68-2.215 0-3.895.4-5.03 1.19-.503.32-.917.76-1.199 1.28a3.484 3.484 0 0 0-.416 1.71c0 .85.295 1.57.933 2.13.622.57 1.407 1.02 2.389 1.36.961.3 2.259.64 3.923 1.03 1.882.4 3.733.94 5.538 1.62a9.224 9.224 0 0 1 3.753 2.64c1.064 1.15 1.621 2.7 1.621 4.69 0 1.66-.491 3.15-1.452 4.52-.916 1.36-2.302 2.47-4.179 3.32-1.827.78-4.07 1.19-6.732 1.19Zm37.983 0c-3.137 0-5.947-.64-8.44-1.96a15.166 15.166 0 0 1-5.8-5.63 15.404 15.404 0 0 1-2.127-8.09c0-2.95.698-5.63 2.127-8.02a15.843 15.843 0 0 1 5.882-5.62c2.493-1.37 5.286-2.05 8.358-2.05 2.493 0 4.774.47 6.82 1.37 2.084.85 3.857 2.1 5.281 3.74l-3.667 3.41a10.747 10.747 0 0 0-3.701-2.68 10.783 10.783 0 0 0-4.482-.89c-2.106 0-3.983.49-5.62 1.45a10.138 10.138 0 0 0-3.928 3.83 10.783 10.783 0 0 0-1.364 5.46c0 2.04.448 3.9 1.364 5.54.96 1.66 2.259 2.94 3.928 3.83 1.637.92 3.514 1.36 5.62 1.36 3.241 0 5.968-1.21 8.183-3.66l3.667 3.5c-1.424 1.66-3.197 2.94-5.281 3.83a17.511 17.511 0 0 1-6.82 1.28Zm46.248-5.2v4.78h-22.848v-30.52h22.254v4.77h-16.624v7.93h14.747v4.69h-14.747v8.35h17.218Zm32.178 4.78-6.219-8.96c-.396.07-.798.1-1.2.09h-6.902v8.87h-5.625v-30.52h12.527c2.667 0 4.964.47 6.906 1.36 1.981.85 3.492 2.11 4.518 3.75 1.026 1.6 1.533 3.54 1.533 5.8 0 2.28-.573 4.24-1.702 5.88-1.091 1.66-2.684 2.88-4.774 3.67l7.076 10.06h-6.138Zm-.087-19.61c0-1.98-.655-3.49-1.964-4.52-1.255-1.02-3.126-1.54-5.619-1.54h-6.656v12.12h6.656c2.493 0 4.364-.52 5.619-1.54 1.309-1.07 1.964-2.58 1.964-4.52Z"/><path fill="#fff" d="m973.638 1037.77-15.085 5.63 15.085 5.62v4.52l-20.115-7.76v-4.69l20.115-7.84v4.52Zm18.381-4.86v9.29h14.751v4.78h-14.751v11.67h-5.625v-30.51h22.246v4.77h-16.621Zm42.251 26.17c-3.13 0-5.95-.64-8.44-1.96a15.73 15.73 0 0 1-5.88-5.63 15.624 15.624 0 0 1-2.13-8.09c0-2.95.7-5.63 2.13-8.02 1.47-2.39 3.43-4.26 5.88-5.62 2.59-1.39 5.5-2.09 8.44-2.05 3.11 0 5.92.68 8.44 2.05 2.49 1.36 4.45 3.23 5.88 5.62 1.41 2.39 2.13 5.07 2.13 8.02 0 3.02-.72 5.71-2.13 8.09a15.22 15.22 0 0 1-5.88 5.63c-2.51 1.32-5.33 1.96-8.44 1.96Zm0-4.95c1.91.04 3.79-.43 5.45-1.36 1.65-.89 2.92-2.17 3.84-3.83.96-1.64 1.45-3.5 1.45-5.54 0-2.05-.49-3.86-1.45-5.46a9.755 9.755 0 0 0-3.84-3.83c-1.65-.98-3.53-1.48-5.45-1.45-2.05 0-3.9.49-5.54 1.45-1.6.91-2.92 2.23-3.84 3.83-.93 1.67-1.4 3.55-1.36 5.46 0 2.04.44 3.9 1.36 5.54.96 1.66 2.24 2.94 3.84 3.83 1.64.92 3.49 1.36 5.54 1.36Zm48.27 4.53-6.22-8.96c-.39.07-.8.1-1.2.09h-6.9v8.87h-5.63v-30.52h12.54c2.66 0 4.96.47 6.9 1.36 1.98.85 3.49 2.11 4.52 3.75 1.02 1.6 1.53 3.54 1.53 5.8 0 2.28-.57 4.24-1.7 5.88-1.1 1.66-2.69 2.88-4.78 3.67l7.08 10.06h-6.14Zm-.09-19.61c0-1.98-.65-3.49-1.96-4.52-1.25-1.02-3.13-1.54-5.62-1.54h-6.65v12.12h6.65c2.49 0 4.36-.52 5.62-1.54 1.3-1.07 1.97-2.58 1.97-4.52h-.01Zm24.1-6.06h-10.15v-4.85h25.91v4.85h-10.14v25.67h-5.62v-25.67Zm45.67 18.59h-15.26l-2.99 7.08h-5.88l13.73-30.52h5.62l13.73 30.52h-5.88l-3.07-7.08Zm-1.88-4.43-5.71-13.3-5.71 13.3h11.42Zm20.61-19.01h5.63v25.74h15.94v4.78h-21.57v-30.52Zm54.83 25.74v4.78h-22.84v-30.52h22.25v4.77h-16.63v7.93h14.75v4.69h-14.75v8.35h17.22Zm35.93 0v4.78h-26v-3.76l17.9-21.91h-17.56v-4.85h25.06v3.83l-17.89 21.91h18.49Zm30.85-2.3h-15.26l-2.98 7.08h-5.89l13.73-30.52h5.63l13.72 30.52h-5.88l-3.07-7.08Zm-1.87-4.43-5.71-13.3-5.72 13.3h11.43Zm29.56-25.15h4.94l-14.4 41h-4.86l14.32-41Zm31.95 19.1v4.69l-20.12 7.75v-4.52l15.09-5.62-15.09-5.63v-4.52l20.12 7.85Z"/><path fill="#FFB015" fill-rule="evenodd" d="M436 735.995C436 537.177 597.401 376 796.5 376c199.089 0 360.48 161.177 360.48 359.995h-102.71c.64-6.092 1.04-12.253 1.29-18.534 1.23-31.187-1.3-62.14-5.73-87.317-8.43-46.422-26.17-88.776-49.8-126.016-30.695-45.98-74.44-84.328-121.684-104.614-29.209-12.1-59.323-17.938-90.276-17.49v-.005c-10.318.146-20.724 1-31.219 2.541-13 1.97-25.719 4.97-38.625 8.797-2.334-1.692-6.703-4.26-11.906-4.26-7.724 0-9.042 10.984-9.042 10.984l1.911 1.912c-1.093 1.189-2.254 2.296-3.356 3.345-4.529 4.318-8.044 7.668-1.618 11.77 6.537 4.158 13.507 6.781 20.284 9.333 3.078 1.158 6.116 2.302 9.055 3.567 11.161 5.62 17.167 11.037 20.073 17.792 2.963 6.87 2.724 15.13 1.505 26.401.799 5.217-3.484 13.922-8.95 25.03-5.715 11.616-12.724 25.86-16.566 41.491-1.802 7.328-2.765 15.26-2.89 23.229-.266 16.292 2.932 32.661 9.474 43.891 6.718 11.126 14.863 20.21 23.11 29.408l.001.001c3.261 3.636 6.537 7.29 9.748 11.096 6.003 8.493 8.424 14.922 10.934 21.59.866 2.299 1.742 4.626 2.78 7.076 4.126 13.893 1.308 26.327-1.509 38.758-.807 3.559-1.614 7.118-2.257 10.711-.149 3.444.041 6.596.543 9.513H436Zm446.759 0h-31.434c12.65-16.274 26.272-30.046 38.666-37.044 3.543.384 1.508 4.595-.442 8.627-.983 2.033-1.944 4.022-2.157 5.451-1.866 7.834-3.367 15.434-4.633 22.966Zm44.969 0h-12.942c3.842-12.2 7.503-24.386 10.575-36.534 1.874-12.55-.679-19.054-3.417-26.03l-.001-.002-.001-.002c-.595-1.517-1.199-3.056-1.768-4.684-.048.105-.24-.221-.586-.806l-.001-.001c-1.141-1.93-3.946-6.675-8.674-8.021-16.389-4.659-44.643 8.129-51.607 11.281-.471.214-.845.383-1.111.5l-30.136 14.692c-5.734-4.541-7.734-10.838-8.932-16.453-1.761-8.244-8.932-20.156-11.172-21.672-7.292-8.166-13.432-16.458-18.167-23.505-3.354-4.993-5.455-9.42-7.541-13.815-1.26-2.655-2.515-5.299-4.037-8.049.414-.848.81-1.652 1.187-2.418l.007-.013.009-.02.013-.026c6.445-13.079 7.351-14.916-5.096-29.117-.639-.729-1.237-1.389-1.844-2.059-1.527-1.684-3.113-3.434-5.557-6.519 19.719 2.052 36.323-7.735 38.13-23.261 1.948-16.713-13.989-33.755-35.646-38.151 1.469-3.297 2.854-6.619 4.042-9.948 4.083-11.442 7.865-23.656 8.359-33.208.933-20.167-7.083-36.401-20.51-45.86-10.656-7.171-19.021-11.895-29.938-14.973 15.881-4.886 32.594-7.5 49.329-8.203 1.557-.032 3.099-.053 4.645-.053l.006-.01c78.041.125 145.667 45.581 189.851 98.313 6.456 88.71-11.222 173.747-47.469 248.627Zm10.451 0h106.361c1.96-18.726 1.87-38.264 1.5-57.711-2.81-32.224-9.82-64.833-18.05-94.286-5.56-18.891-13.76-37.958-24.34-56.464-5.411-9.213-11.597-18.491-18.496-27.644.151 3.205.272 6.412.362 9.62.45 16.362.099 32.736-1.052 49.063a506.068 506.068 0 0 1-2.334 24.432 501.912 501.912 0 0 1-3.531 24.287 497.67 497.67 0 0 1-4.719 24.088 497.24 497.24 0 0 1-5.896 23.823 490.488 490.488 0 0 1-7.057 23.505 503.263 503.263 0 0 1-8.203 23.136 502.654 502.654 0 0 1-14.545 34.151ZM732.955 411.987c-9.76-3.156-16.505-4.573-20.021-4.453-1.594.052-2.51.422-2.755 1.089l1.448.411-2.625.605c.07.022.139.045.208.069.121.04.242.081.365.118.663.42.918.916 1.167 1.4.334.652.656 1.28 1.947 1.663 2.091.616 4.408 1.248 6.804 1.901h.001c7.421 2.025 15.598 4.255 20.154 6.87 6.5 3.817 12.208 10.437 16.448 17.135 4.14 6.547 5.619 15.15 5.651 23.698 1.531-7.042 2.307-12.75 2.406-15.933.078-8.468-3.927-15.526-10.052-21.343-5.719-5.438-13.287-9.813-21.146-13.23ZM604.984 525.245c-29.63 0-53.734 24.109-53.734 53.739 0 29.631 24.104 53.766 53.734 53.766 29.631 0 53.766-24.135 53.766-53.766 0-29.63-24.135-53.739-53.766-53.739Zm-69.875 48.359c2.959 0 5.381 2.417 5.381 5.38 0 2.99-2.391 5.381-5.349 5.381H524.38c-2.963 0-5.38-2.422-5.38-5.381a5.388 5.388 0 0 1 5.38-5.38h10.729Zm30.287-52.427c.995 1.734 2.786 2.672 4.666 2.672.94.005 1.864-.24 2.678-.708 2.557-1.48 3.442-4.782 1.963-7.344l-5.38-9.307c-1.479-2.563-4.781-3.443-7.344-1.964-2.562 1.479-3.443 4.781-1.963 7.344l5.38 9.307ZM537.87 534.01l9.307 5.381c2.563 1.479 3.443 4.781 1.964 7.343a5.409 5.409 0 0 1-7.344 1.964l-9.307-5.38c-2.563-1.479-3.443-4.782-1.964-7.344 1.479-2.557 4.781-3.443 7.344-1.964Zm3.927 75.256-9.307 5.38c-2.563 1.479-3.443 4.781-1.964 7.344.995 1.739 2.792 2.677 4.667 2.677a5.296 5.296 0 0 0 2.677-.714l9.307-5.38c2.563-1.479 3.443-4.781 1.964-7.344-1.48-2.557-4.782-3.443-7.344-1.963Zm57.807 39.593c0-2.958 2.422-5.38 5.38-5.38a5.372 5.372 0 0 1 4.972 3.32c.27.653.409 1.353.409 2.06v10.761a5.394 5.394 0 0 1-5.381 5.38c-2.958 0-5.38-2.422-5.38-5.38v-10.761Zm86.016-75.255h-10.761c-2.958 0-5.375 2.417-5.375 5.38 0 2.959 2.417 5.381 5.375 5.381h10.761c2.958 0 5.38-2.422 5.38-5.381 0-2.963-2.422-5.38-5.38-5.38Zm-120.224 63.214c1.479-2.563 4.781-3.443 7.344-1.964a5.358 5.358 0 0 1 2.52 3.259 5.364 5.364 0 0 1-.531 4.085l-5.38 9.307a5.409 5.409 0 0 1-7.344 1.964c-2.562-1.479-3.443-4.781-1.963-7.344l5.354-9.307Zm79.182 0c-1.479-2.563-4.781-3.443-7.344-1.964-2.562 1.479-3.442 4.781-1.963 7.344l5.38 9.307c.995 1.74 2.786 2.677 4.667 2.677.911 0 1.849-.229 2.677-.713 2.557-1.479 3.442-4.781 1.963-7.344l-5.38-9.307Zm23.625-27.552 9.307 5.38c2.558 1.479 3.443 4.781 1.964 7.344a5.425 5.425 0 0 1-4.672 2.677 5.375 5.375 0 0 1-2.672-.714l-9.307-5.38c-2.563-1.479-3.443-4.781-1.964-7.344 1.479-2.557 4.782-3.443 7.344-1.963Zm-2.708-59.829c.911 0 1.854-.223 2.677-.708l9.307-5.38c2.563-1.479 3.443-4.781 1.964-7.344-1.48-2.562-4.782-3.443-7.344-1.963l-9.276 5.349c-2.563 1.479-3.443 4.781-1.964 7.343a5.333 5.333 0 0 0 4.636 2.703Zm-25.584-25.588a5.39 5.39 0 0 1-2.677-.708c-2.562-1.48-3.442-4.782-1.963-7.344l5.38-9.307c1.479-2.563 4.781-3.443 7.344-1.964 2.557 1.479 3.442 4.781 1.963 7.344l-5.38 9.307a5.427 5.427 0 0 1-1.978 1.957 5.421 5.421 0 0 1-2.689.715Zm-34.927-9.365c2.964 0 5.381-2.416 5.381-5.375v-10.734a5.381 5.381 0 0 0-7.44-4.968 5.384 5.384 0 0 0-2.912 2.91 5.381 5.381 0 0 0-.409 2.058v10.76c0 2.959 2.422 5.349 5.38 5.349Z" clip-rule="evenodd"/><path fill="#fff" d="M334.771 796.753H194.156c-19.333 0-35.156 15.818-35.156 35.157v140.614h35.156v-70.307h140.615v-35.156H194.156V831.91h140.615v-35.157Zm193.347 35.157c0-19.339-15.818-35.157-35.151-35.157h-140.62v175.771h35.156v-70.307h20.651l65.037 65.036c3.516 3.516 7.911 5.271 12.745 5.271h42.182v-35.156h-35.151l-35.156-35.151h35.156c19.333 0 35.151-15.818 35.151-35.156V831.91Zm-35.151 0v35.151H387.503V831.91h105.464Zm193.347 140.614c19.552 0 35.151-16.036 35.151-35.156V831.91c0-19.339-15.817-35.157-35.151-35.157H580.851c-19.334 0-35.157 15.818-35.157 35.157v105.458c0 19.338 15.823 35.156 35.157 35.156h105.463ZM580.851 831.91h105.463v105.458H580.851V831.91Zm193.347 140.614V856.738l110.516 110.515c3.297 3.292 7.687 5.271 12.526 5.271 9.666 0 17.573-7.911 17.573-17.578V796.753h-35.151v115.792L769.146 802.024c-3.297-3.292-7.693-5.271-12.526-5.271-9.667 0-17.578 7.912-17.578 17.578v158.193h35.156Zm333.962-175.771H932.389v35.157h70.311v140.614h35.15V831.91h70.31v-35.157ZM1220.6 791h-64.39c-8.85 0-16.1 7.245-16.1 16.099v48.292c0 8.854 7.25 16.099 16.1 16.099h64.39v-16.099h-64.39v-16.094h64.39v-16.099h-64.39v-16.099h64.39V791Zm41.85 80.49v-53.021l50.61 50.604c1.51 1.51 3.52 2.417 5.73 2.417 4.43 0 8.05-3.62 8.05-8.047V791h-16.09v53.021l-50.61-50.604c-1.51-1.511-3.52-2.417-5.74-2.417-4.42 0-8.04 3.625-8.04 8.052v72.438h16.09Zm154.54 0c8.85 0 16.09-7.245 16.09-16.099v-48.292c0-8.854-7.24-16.099-16.09-16.099h-64.39v80.49h64.39Zm-48.3-64.391h48.3v48.292h-48.3v-48.292Z"/><path fill="#FFB015" d="M1204.5 979.302c8.86 0 16.1-7.244 16.1-16.099v-48.291c0-8.854-7.24-16.099-16.1-16.099h-64.39v80.489h64.39Zm-48.29-64.39h48.29v48.291h-48.29v-48.291Zm106.24-16.099c-8.85 0-16.09 7.245-16.09 16.099v64.39h16.09V947.11h48.3v32.192h16.09v-64.39c0-8.854-7.24-16.099-16.09-16.099h-48.3Zm0 16.099h48.3v16.099h-48.3v-16.099Zm154.54 16.099h-48.3v-32.198h-16.09v32.198c0 8.854 7.24 16.099 16.09 16.099h48.3v16.093h-64.39v16.099h64.39c8.85 0 16.09-7.244 16.09-16.099v-64.39h-16.09v32.198Z"/></svg>